<svg id="sentence" xmlns="http://www.w3.org/2000/svg" viewBox="0 0 30 30"><defs><style>.cls-1{fill:#b22e2f;}</style></defs><title>Zeichenfläche 1</title><g id="Ebene_7_Kopie" data-name="Ebene 7 Kopie"><path class="cls-1" d="M24.47,14.86h0Z"/><path class="cls-1" d="M10.54,28.26q1.07-1,2.15-2l2.48-2.29,5-4.54c.82-.76,1.62-1.52,2.41-2.29l.58-.57.55-.57.09-.09c-.27,0-.55.09-.84.15-.5.11-1,.24-1.52.39-1,.29-2.06.65-3.09,1s-2.07.76-3.1,1.17-2.06.84-3.08,1.26l-.8.33-.84.32c-.57.21-1.15.4-1.77.56a10.27,10.27,0,0,1-2,.33,5.58,5.58,0,0,1-1.2-.06,3.76,3.76,0,0,1-1.43-.53,3.13,3.13,0,0,1-1.17-1.35A3.77,3.77,0,0,1,2.6,18,6.63,6.63,0,0,1,3,15.81a11.42,11.42,0,0,1,1.88-3.42A22.28,22.28,0,0,1,7.29,9.73,33.55,33.55,0,0,1,10,7.48c.93-.7,1.9-1.36,2.84-2l2.83-1.84c.94-.61,1.88-1.22,2.8-1.84l.4-.27a14,14,0,0,0-8.32,26.71Z"/><path class="cls-1" d="M26.81,8.06c-.56.72-1.15,1.42-1.75,2.11H24.3l-.34,0a15.1,15.1,0,0,0-2,.26l.47-.37c1.16-.92,2.28-1.88,3.36-2.9l.45-.45a14.06,14.06,0,0,0-1.64-1.86C23.53,6,22.4,7.17,21.24,8.28s-2.46,2.29-3.72,3.41l-1.13.4c-1.11.41-2.2.82-3.27,1.26S11,14.23,9.93,14.7L9.2,15l0,0c.24-.34.51-.68.79-1l.62-.42,3.22-2.18C15.92,10,18,8.48,20.08,6.92,21.31,6,22.52,5,23.69,4a14,14,0,0,0-2.52-1.59c-.47.39-.93.79-1.41,1.17C18,5,16.16,6.36,14.37,7.7l-.67.5L13,8.7q-.65.5-1.27,1c-.83.7-1.63,1.43-2.37,2.18a19.22,19.22,0,0,0-2,2.37,8.85,8.85,0,0,0-1.29,2.5,2.79,2.79,0,0,0-.08.3c0,.1,0,.2-.06.3a2.33,2.33,0,0,0,0,.5.58.58,0,0,0,0,.09L6,18a2.49,2.49,0,0,0,.48,0,7,7,0,0,0,1.32-.25c.47-.13,1-.29,1.44-.48L10,17l.75-.33c1-.46,2.09-.89,3.15-1.32A65.71,65.71,0,0,1,20.43,13c.57-.16,1.15-.31,1.75-.44a13.65,13.65,0,0,1,1.92-.28,6.54,6.54,0,0,1,1.16,0,4,4,0,0,1,.72.15,3.07,3.07,0,0,1,.89.43,2.57,2.57,0,0,1,.84,1,2.42,2.42,0,0,1,.12.31l0,.15,0,.18a2.61,2.61,0,0,1,0,.65,3.23,3.23,0,0,1-.2.89,4.65,4.65,0,0,1-.28.62,6.91,6.91,0,0,1-.63.94l-.34.4-.18.19-.16.17-.63.63-.63.6c-.85.78-1.7,1.53-2.56,2.27-1.71,1.49-3.45,2.92-5.18,4.36l-3.29,2.71c.37,0,.75.06,1.13.06A14,14,0,0,0,27,7.81Z"/></g></svg>