<svg xmlns="http://www.w3.org/2000/svg" viewBox="0 0 36 36"><defs><style>.cls-1{fill:#e6e6e6;}.cls-2{fill:gray;}.cls-3{fill:#b22e2f;}</style></defs><title>Zeichenfläche 1</title><g id="LiveviewCommand"><path class="cls-1" d="M8.53,32A.53.53,0,0,1,8,31.47V4.53A.53.53,0,0,1,8.53,4H19.87a.53.53,0,0,1,.37.16l7.6,7.6a.53.53,0,0,1,.16.38V31.47a.53.53,0,0,1-.53.53Z"/><path class="cls-2" d="M19.68,5,27,12.32V31H9V5H19.68m.19-2H8.53A1.53,1.53,0,0,0,7,4.53V31.47A1.53,1.53,0,0,0,8.53,33H27.47A1.53,1.53,0,0,0,29,31.47V12.13A1.53,1.53,0,0,0,28.55,11L21,3.45A1.53,1.53,0,0,0,19.87,3Z"/><path class="cls-2" d="M21,6.32,25.68,11H21V6.32M20.06,3h0A1.06,1.06,0,0,0,19,4.06v7.87A1.06,1.06,0,0,0,20.06,13h7.87a1.06,1.06,0,0,0,.75-1.82L20.82,3.31A1.06,1.06,0,0,0,20.06,3Z"/><path class="cls-3" d="M18,20.13a7.25,7.25,0,0,1,5,2.26,7.35,7.35,0,0,1-5,2.22,7.25,7.25,0,0,1-5-2.26,7.35,7.35,0,0,1,5-2.22M18,18c-4.06,0-6.62,2.92-8,4.37,1.46,1.46,3.91,4.37,8,4.37s6.62-2.92,8-4.37C24.46,20.92,22,18,18,18Z"/><path class="cls-3" d="M18,22a.5.5,0,1,1-.5.5A.5.5,0,0,1,18,22m0-2a2.5,2.5,0,1,0,2.5,2.5A2.5,2.5,0,0,0,18,20Z"/></g></svg>