<svg xmlns="http://www.w3.org/2000/svg" viewBox="0 0 36 36"><defs><style>.cls-1{fill:none;}.cls-2{fill:#b3b3b3;}.cls-3{fill:gray;}.cls-4{font-size:9px;fill:#b22e2f;font-family:FiraCode-Bold, Fira Code;font-weight:700;letter-spacing:-0.1em;}</style></defs><title>Zeichenfläche 1</title><g id="Ebene_76" data-name="Ebene 76"><path class="cls-1" d="M6,7V29a1,1,0,0,0,1,1H29a1,1,0,0,0,1-1V17H19V6H7A1,1,0,0,0,6,7Z"/><path class="cls-2" d="M30,29a1,1,0,0,1-1,1H7a1,1,0,0,1-1-1V7A1,1,0,0,1,7,6H19V3H6A3,3,0,0,0,3,6V30a3,3,0,0,0,3,3H30a3,3,0,0,0,3-3V17H30Z"/><path class="cls-3" d="M32,3H22V6h8v8h3V4A1,1,0,0,0,32,3Z"/><rect class="cls-3" x="23.27" y="3.06" width="3" height="16.33" transform="translate(15.19 -14.23) rotate(45)"/><text class="cls-4" transform="translate(6.3 26.83)">&lt;tei&gt;</text></g></svg>