<svg id="ErasingTool_Icon" data-name="ErasingTool Icon" xmlns="http://www.w3.org/2000/svg" viewBox="0 0 36 36"><defs><style>.cls-1{fill:#e88995;}.cls-2{fill:#ffccd7;}.cls-3{opacity:0.23;}.cls-4,.cls-5{fill:none;stroke:#4d4d4d;}.cls-4{stroke-miterlimit:10;stroke-width:1.72px;}.cls-5{stroke-linejoin:bevel;stroke-width:1.65px;}.cls-6{fill:#4d4d4d;}</style></defs><title>Zeichenfläche 1</title><path class="cls-1" d="M31.81,25.12l-7,6.74a4.22,4.22,0,0,1-5.77,0L4.8,18.23c-1.72-1.65-2.5-6.92-.88-8.47l6.45-6c.78-.75,4-.06,5.19,1.11L31.81,19.59A3.81,3.81,0,0,1,31.81,25.12Z"/><polygon class="cls-2" points="3.15 11.07 8.26 4.99 10.93 3.11 16.5 4.79 3.82 17.05 3.15 11.07"/><path class="cls-3" d="M22.9,28.13,8.69,14.5C7,12.86,6.12,8,7.74,6.43L3.92,9.56c-1.62,1.56-.84,7,.88,8.67L19,31.86c1.59,1.52,5.27.48,6.85-1l2.8-2.69A4.22,4.22,0,0,1,22.9,28.13Z"/><line class="cls-4" x1="4.18" y1="16.69" x2="16.4" y2="4.97"/><path class="cls-5" d="M7.6,6.8c-.8.77-.81,6.95-.37,7.37L22.76,29.07c1.59,1.52,3.19.55,4.77-1"/><path class="cls-6" d="M10.92,4.74a22.32,22.32,0,0,1,4,1L30.62,20.83a2.09,2.09,0,0,1,0,3.06l-7,6.74a2.5,2.5,0,0,1-3.39,0L5,16a20.41,20.41,0,0,1-.1-5.45l6.06-5.81M10.57,3a.66.66,0,0,0-.41.08L3.47,9.5c-.8.77-.43,7,0,7.46L19,31.86a4.22,4.22,0,0,0,5.77,0l7-6.74a3.81,3.81,0,0,0,0-5.53L15.93,4.36A17.84,17.84,0,0,0,10.57,3Z"/></svg>