<svg id="Ebene_1" data-name="Ebene 1" xmlns="http://www.w3.org/2000/svg" viewBox="0 0 24 24"><defs><style>.cls-1{fill:#b22e2f;}</style></defs><title>Zeichenfläche 1</title><path class="cls-1" d="M16.76,0a4,4,0,0,1,.67,1.2,2.88,2.88,0,0,1,.11,1.41A3.85,3.85,0,0,1,17,3.95a7.11,7.11,0,0,1-.86,1.12,12.88,12.88,0,0,1-1,1c-.35.31-.7.6-1.06.88-.72.57-1.45,1.1-2.18,1.65l-.27.2-.26.2-.51.41c-.34.28-.66.57-1,.88a7.74,7.74,0,0,0-.81,1,3.57,3.57,0,0,0-.52,1,1.12,1.12,0,0,0,0,.12s0,.08,0,.12a.94.94,0,0,0,0,.2c0,.05,0,.08,0,.07l0,0h.26a2.81,2.81,0,0,0,.53-.1c.19-.05.38-.12.58-.19l.29-.12.3-.13,1.27-.53a26.47,26.47,0,0,1,2.63-.93l.7-.18a5.49,5.49,0,0,1,.77-.11,2.63,2.63,0,0,1,.47,0,1.61,1.61,0,0,1,.29.06,1.24,1.24,0,0,1,.36.17,1,1,0,0,1,.34.4l0,.12,0,.06,0,.07a1.05,1.05,0,0,1,0,.26,1.3,1.3,0,0,1-.08.36,1.87,1.87,0,0,1-.11.25,2.79,2.79,0,0,1-.25.38l-.14.16-.07.08-.07.07-.26.25-.25.24c-.34.31-.69.62-1,.92-.69.6-1.39,1.18-2.09,1.76L11,17.76,10.7,18l-.25.22-.12.11-.12.11-.25.23c-.33.3-.65.61-1,.93a16.08,16.08,0,0,0-1.73,2,8.7,8.7,0,0,0-.69,1.14c-.1.2-.19.4-.27.62a5.88,5.88,0,0,0-.19.65,4.53,4.53,0,0,1,.06-.68,5.82,5.82,0,0,1,.16-.68,7.87,7.87,0,0,1,.52-1.29A13.8,13.8,0,0,1,8.39,19c.29-.36.59-.71.89-1.06l.23-.26.12-.13.12-.13.25-.25.25-.24,1-.94,1-.92,2-1.83,1-.92.23-.23.22-.23.05-.05,0,0,.08-.1a1.4,1.4,0,0,0,.12-.19l0-.06s0,0,0,0a.34.34,0,0,0,0,.09v.05l0,0a.39.39,0,0,0,.12.14l.05,0h-.26a4.14,4.14,0,0,0-.57.09l-.61.16c-.41.12-.83.26-1.25.41L12.27,13,11,13.47l-.32.13-.34.13c-.23.08-.47.16-.71.22a4.13,4.13,0,0,1-.81.13,2.25,2.25,0,0,1-.48,0,1.52,1.52,0,0,1-.57-.21,1.26,1.26,0,0,1-.47-.54,1.52,1.52,0,0,1-.13-.59,2.67,2.67,0,0,1,.14-.89,4.6,4.6,0,0,1,.76-1.38,9,9,0,0,1,1-1.07,13.51,13.51,0,0,1,1.09-.91c.37-.28.76-.55,1.14-.79l1.14-.74,1.13-.74A19.57,19.57,0,0,0,15.7,4.6a7.12,7.12,0,0,0,.89-.95,4.12,4.12,0,0,0,.35-.54,3,3,0,0,0,.25-.59,2.66,2.66,0,0,0,.11-.63,2.9,2.9,0,0,0,0-.65A4.13,4.13,0,0,0,16.76,0Z"/><path class="cls-1" d="M17.76,7a13.34,13.34,0,0,1-1.22,1.31c-.43.41-.89.8-1.35,1.17L15,9.67a6.08,6.08,0,0,1,.79-.11h.44c.24-.28.48-.56.71-.85a13.74,13.74,0,0,0,1-1.52,8.39,8.39,0,0,0,.76-1.66A8.26,8.26,0,0,1,17.76,7Z"/><path class="cls-1" d="M18.22,4.11a3,3,0,0,1-.16.35,4.66,4.66,0,0,1-.42.65,10.22,10.22,0,0,1-1,1.15,26.52,26.52,0,0,1-2.38,2c-.83.63-1.68,1.22-2.54,1.81l-1.3.88-.25.17c-.11.14-.22.27-.32.41h0l.29-.13,1.28-.55c.43-.18.87-.35,1.32-.51l.46-.16c.51-.45,1-.9,1.5-1.37a27,27,0,0,0,2.18-2.3,10.48,10.48,0,0,0,.92-1.29,4.79,4.79,0,0,0,.35-.71,3,3,0,0,0,.12-.38,2.08,2.08,0,0,0,.05-.39A2.06,2.06,0,0,1,18.22,4.11Z"/></svg>