<svg id="pin" xmlns="http://www.w3.org/2000/svg" viewBox="0 0 24.15 24.15"><defs><style>.cls-1{fill:#75868a;}.cls-2{fill:#326470;}</style></defs><title>hermeneus-icon-pin</title><path class="cls-1" d="M4,25.94a13.07,13.07,0,0,1,.92-2.34l7.86-7.86,1.41,1.41L6.29,25A13.07,13.07,0,0,1,4,25.94Z" transform="translate(-3.95 -1.79)"/><path class="cls-2" d="M27.94,7.5,22.39,1.95a.55.55,0,0,0-.91.2l-5.26,8.28a.55.55,0,0,1-.22.28l-5.63.84a.55.55,0,0,0-.1.86l7.22,7.22a.55.55,0,0,0,.86-.1l.84-5.63a.55.55,0,0,1,.28-.22l8.28-5.26A.55.55,0,0,0,27.94,7.5Z" transform="translate(-3.95 -1.79)"/></svg>