<svg id="SaveIcon" xmlns="http://www.w3.org/2000/svg" viewBox="0 0 36 36"><defs><style>.cls-1{fill:#ccc;}.cls-2{fill:#b22e2f;}</style></defs><title>Zeichenfläche 1</title><g id="Ebene_73" data-name="Ebene 73"><path class="cls-1" d="M3,23a6,6,0,0,1,4.64-5.84A3.92,3.92,0,0,1,7,15a4,4,0,0,1,4-4,3.88,3.88,0,0,1,2.59,1A8,8,0,0,1,29,15c0,.22,0,.45,0,.67A7,7,0,0,1,26,29H9A6,6,0,0,1,3,23Z"/></g><path class="cls-2" d="M21.59,21.08v4.23a.9.9,0,0,1-.9.9H15.31a.9.9,0,0,1-.9-.9V21.08H11.9a.9.9,0,0,1-.68-1.49l6.1-7a.9.9,0,0,1,1.35,0l6.1,7a.9.9,0,0,1-.68,1.49Z"/></svg>