<svg id="MarkingTool_Icon" data-name="MarkingTool Icon" xmlns="http://www.w3.org/2000/svg" viewBox="0 0 1000 1000"><defs><style>.cls-1{fill:gray;}.cls-2{opacity:0.5;}.cls-3{fill:#8fbc8f;}.cls-4{opacity:0.4;}.cls-5{fill:#4d4d4d;}.cls-6{opacity:0.3;}</style></defs><title>Zeichenfläche 1</title><g id="Ebene_47_Icon_Kopie_2" data-name="Ebene 47 Icon Kopie 2"><g id="Ebene_52_Kopie_2" data-name="Ebene 52 Kopie 2"><rect class="cls-1" x="146" y="115" width="723" height="106" rx="0.82" ry="0.82"/><rect class="cls-1" x="155" y="335" width="712" height="116" rx="1.25" ry="1.25"/></g><g id="Ebene_46_Kopie_3" data-name="Ebene 46 Kopie 3" class="cls-2"><rect class="cls-3" x="92" y="279" width="412" height="230" rx="44.5" ry="44.5"/></g><path class="cls-3" d="M574.07,445.91,449.34,570.64c-10.76,10.76-26.43,12.54-35,4l-65.17-65.17c-5.41-5.41-6.89-14-3.88-22.61l64.4-185.06c6.7-19.27,30.76-28.45,42.85-16.36l125.5,125.5C586.62,419.48,584.83,435.15,574.07,445.91Z"/><path class="cls-4" d="M535.14,513.35c-14.75,14.75-36.21,17.19-47.95,5.45l-89.31-89.31a25.09,25.09,0,0,1-6.59-11.92l-12.44,35.75c-4.11,11.82-2.1,23.57,5.32,31l89.31,89.31c11.73,11.73,33.2,9.29,47.95-5.45"/><path class="cls-5" d="M446,349.58l76.85,76.85-93,93L398,487.55l48-138M438.76,280c-11.53,0-24.43,8.5-29.06,21.8l-64.4,185.06c-3,8.63-1.53,17.2,3.88,22.61l65.17,65.17A19.25,19.25,0,0,0,428.23,580c7.14,0,14.94-3.22,21.11-9.4L574.07,445.91c10.76-10.76,12.54-26.43,4-35l-125.5-125.5A19.06,19.06,0,0,0,438.76,280Z"/><path class="cls-1" d="M893.26,662.62,659,896.93l-89.89,89.89c-39.43,39.43-106.81,10.79-105.79-45l2.16-117.52a219.48,219.48,0,0,0-11-72.75l-84.21-169.8c-5.41-24.14,4.29-52.48,25.08-73.27L504.84,399c20.79-20.79,49.14-30.5,73.27-25.08l169.8,84.21a219.48,219.48,0,0,0,72.75,11l117.52-2.16c55.75-1,84.39,66.36,45,105.79Z"/><path class="cls-5" d="M483.2,926S551,762.2,557.9,745.33c7.49-18.33.64-49.33-12.56-72.75l-96.14-169.8c-3.49-13.61-1.48-28.55,5.18-42.73l-55.32,48.46c-23.74,20.79-34.82,49.14-28.63,73.27l96.14,169.8a194.6,194.6,0,0,1,12.56,72.75l-2.46,117.52Z"/><path class="cls-5" d="M563.48,422.44,725.7,502.9l3.18,1.58,3.38,1.11a269,269,0,0,0,84.37,13.55c1.64,0,3.3,0,4.95,0l117.51-2.16h.35c5.23,0,8.91,2.49,11,7.41a11.1,11.1,0,0,1-2.6,13l-89.89,89.89L623.6,861.57l-89.89,89.89a10.9,10.9,0,0,1-8,3.64,13.66,13.66,0,0,1-9.43-4,10.88,10.88,0,0,1-3-8.37l2.16-117.52a268.83,268.83,0,0,0-13.5-89.32l-1.11-3.38-1.58-3.18L418.76,567.12c.36-6.38,4.18-15.54,11.9-23.25L540.2,434.33c8.3-8.3,17.48-11.55,23.28-11.89m1-50c-20.64,0-42.65,9.58-59.63,26.56L395.31,508.51c-20.79,20.79-30.5,49.14-25.08,73.27l84.21,169.8a219.49,219.49,0,0,1,11,72.75l-2.16,117.52c-.7,37.89,30.18,63.25,62.43,63.25a60.67,60.67,0,0,0,43.36-18.29L659,896.93,893.26,662.62l89.89-89.89c39.14-39.14,11.22-105.8-43.71-105.8h-1.25L820.67,469.1q-2,0-4,0a219.49,219.49,0,0,1-68.72-11l-169.8-84.21a62.3,62.3,0,0,0-13.65-1.48Z"/><path class="cls-3" d="M1409.87,1737.75c-10.84,0-20.6-3.16-28.24-9.13L476.18,985.27c-9.39-7.34-15-18.58-15.78-31.66-1.15-19,7.63-39.73,23.49-55.6L893,488.89c15-15,34-23.59,52.27-23.59,14.55,0,27,5.64,35,15.87l743.36,905.48c16.52,21.11,10.3,55.72-14.47,80.5l-247,247c-15,15-34,23.6-52.27,23.6Z"/><path d="M945.28,465.79c14.39,0,26.67,5.57,34.6,15.7l743.34,905.45c7.84,10,10.71,23.67,8.07,38.44s-10.64,29.55-22.5,41.41l-28,28-191,191-28,28c-14.9,14.9-33.83,23.45-51.92,23.45-10.72,0-20.38-3.12-27.91-9L476.48,984.87c-9.4-7.35-14.79-18.17-15.58-31.29-1.14-18.81,7.59-39.45,23.35-55.21L593.31,789.3l191-191L893.37,489.24c14.9-14.9,33.82-23.45,51.91-23.45m0-1c-17.48,0-37,8.08-52.62,23.74L783.6,597.6l-191,191L483.54,897.66c-28.3,28.3-31.85,69.08-7.68,88L1381.33,1729c8,6.24,17.92,9.24,28.54,9.24,17.63,0,37.15-8.27,52.62-23.74l28-28,191-191,28-28c24.8-24.8,31.09-60,14.5-81.17L980.66,480.86c-8.45-10.8-21.26-16.07-35.37-16.07Z"/><g class="cls-6"><path d="M1614.68,1519.71l-998.59-698c-13.15-8.41-14.69-27-6.8-49.85l-87.21,87.21c-51,51-72.34,109.56-46.05,126.37l970.5,678.32c23,14.74,74.84-8.18,119.54-52.88l50.48-50.48,40.95-40.95C1639.83,1525.59,1624.64,1526.08,1614.68,1519.71Z"/></g><path class="cls-5" d="M943.91,514.9l739.33,900.57c-.22,3-2.29,9.87-9.09,16.67l-28,28-191,191-28,28c-6.75,6.75-13.54,8.84-16.69,9.08L509.9,948.91c.45-3.14,2.43-9.33,9-15.89L628,823.95,819,633,928,523.89c6.25-6.25,12.4-8.51,15.89-9m1.37-50.1c-17.48,0-37,8.08-52.62,23.74L783.6,597.6l-191,191L483.54,897.66c-28.3,28.3-31.85,69.08-7.68,88L1381.33,1729c8,6.24,17.92,9.24,28.54,9.24,17.63,0,37.15-8.27,52.62-23.74l28-28,191-191,28-28c24.8-24.8,31.09-60,14.5-81.17L980.66,480.86c-8.45-10.8-21.26-16.07-35.37-16.07Z"/></g></svg>