<svg id="AssignationTool_Icon" data-name="AssignationTool Icon" xmlns="http://www.w3.org/2000/svg" viewBox="0 0 36 36"><defs><style>.cls-1{fill:#ccc;}.cls-2{fill:#4d4d4d;}.cls-3{fill:#666;stroke-width:0.65px;}.cls-3,.cls-7{stroke:#4d4d4d;stroke-miterlimit:10;}.cls-4{fill:#d9534f;}.cls-5{fill:gray;}.cls-6{fill:#999;}.cls-7{fill:none;stroke-width:1.3px;}</style></defs><title>Zeichenfläche 1</title><g id="Ebene_60" data-name="Ebene 60"><path class="cls-1" d="M10.25,32.19a1.4,1.4,0,0,1-1-.42l-5-5.06a1.44,1.44,0,0,1,0-2L24.55,4.23a1.41,1.41,0,0,1,2,0l5,5.06a1.44,1.44,0,0,1,0,2L11.25,31.77A1.4,1.4,0,0,1,10.25,32.19Z"/><path class="cls-2" d="M25.55,4.62A.6.6,0,0,1,26,4.8l5,5.06a.64.64,0,0,1,0,.89L10.68,31.2a.6.6,0,0,1-.85,0l-5-5.06a.64.64,0,0,1,0-.89L25.13,4.8a.6.6,0,0,1,.43-.18m0-1.62A2.22,2.22,0,0,0,24,3.65L3.65,24.11a2.26,2.26,0,0,0,0,3.17l5,5.06a2.23,2.23,0,0,0,3.15,0L32.16,11.89a2.26,2.26,0,0,0,0-3.17l-5-5.06A2.22,2.22,0,0,0,25.55,3Z"/><g id="Lineal_Kopie_Kopie" data-name="Lineal Kopie Kopie"><path class="cls-3" d="M12.56,24.71l2.5,2.52.18-.19-2.5-2.52c-.15-.15-.36-.19-.46-.09s-.06.31.09.46l2.5,2.52.18-.19Z"/><path class="cls-3" d="M15.19,21.32l2.87,2.89.18-.19-2.87-2.89c-.15-.15-.36-.19-.46-.09s-.06.31.09.46l2.87,2.89.18-.19Z"/><path class="cls-3" d="M9.71,27.87l2.35,2.37.18-.19L9.89,27.69c-.15-.15-.36-.19-.46-.09s-.06.31.09.46l2.35,2.37.18-.19Z"/><path class="cls-3" d="M18.14,18.35,21,21.24,21.2,21l-2.87-2.89c-.15-.15-.36-.19-.46-.09s-.06.31.09.46l2.87,2.89.18-.19Z"/><path class="cls-3" d="M21.13,15.38,24,18.27l.18-.19L21.32,15.2c-.15-.15-.36-.19-.46-.09s-.06.31.09.46l2.87,2.89.18-.19Z"/><path class="cls-3" d="M24,12.41l2.87,2.89.18-.19-2.87-2.89c-.15-.15-.36-.19-.46-.09s-.06.31.09.46l2.87,2.89.18-.19Z"/><path class="cls-3" d="M27,9.44l2.87,2.89.18-.19L27.18,9.25c-.15-.15-.36-.19-.46-.09s-.06.31.09.46l2.87,2.89.18-.19Z"/></g></g><g id="Ebene_1_Kopie_6_Kopie_2" data-name="Ebene 1 Kopie 6 Kopie 2"><path class="cls-4" d="M11.91,4.44,4.75,3A1.35,1.35,0,0,0,3,4.75l1.4,7.17a2.73,2.73,0,0,0,.69,1.42L24.78,33,33,24.79,13.33,5.14A2.9,2.9,0,0,0,11.91,4.44Z"/><path class="cls-5" d="M11.91,4.44,4.75,3A1.35,1.35,0,0,0,3,4.75l1.4,7.17a2.73,2.73,0,0,0,.69,1.42L24.78,33,33,24.79,13.33,5.14A2.9,2.9,0,0,0,11.91,4.44Z"/><rect class="cls-6" x="16.32" y="3.9" width="6.94" height="25.24" transform="translate(-5.88 18.83) rotate(-45)"/><path class="cls-1" d="M21.71,29.89,24.82,33,33,24.82l-3.11-3.11Z"/><path class="cls-1" d="M11.95,4.45,4.75,3,9.57,4,4,9.57,3,4.75l1.41,7.2a3.11,3.11,0,0,0,.71,1.41l8.2-8.2A3.11,3.11,0,0,0,11.95,4.45Z"/><path class="cls-6" d="M9.57,4,4.75,3A1.36,1.36,0,0,0,3,4.75L4,9.57Z"/><path class="cls-2" d="M4.35,4.3l.15,0,7.15,1.4a1.61,1.61,0,0,1,.81.39L31.14,24.79l-6.36,6.36L6,12.41a1.5,1.5,0,0,1-.33-.74L4.31,4.5a.7.7,0,0,1,0-.2h0m0-1.3A1.32,1.32,0,0,0,3,4.75l1.4,7.17a2.73,2.73,0,0,0,.69,1.42L24.78,33,33,24.79,13.33,5.14a2.9,2.9,0,0,0-1.41-.7L4.75,3a2.1,2.1,0,0,0-.4,0Z"/><line class="cls-7" x1="4.68" y1="8.61" x2="8.64" y2="4.64"/><line class="cls-7" x1="8.64" y1="10.63" x2="25.02" y2="27.01"/><line class="cls-7" x1="5.58" y1="13.26" x2="13.24" y2="5.6"/><line class="cls-7" x1="22.16" y1="29.83" x2="29.81" y2="22.18"/></g></svg>