<svg xmlns="http://www.w3.org/2000/svg" viewBox="0 0 36 36"><defs><style>.cls-1{fill:#b22e2f;}.cls-2{fill:#e6e6e6;}.cls-3{fill:#ccc;}.cls-4{fill:#f2f2f2;}.cls-5{fill:#fff;}.cls-6{fill:#b3b3b3;}.cls-7{opacity:0.48;}.cls-8{fill:#ffb2b2;}.cls-9{fill:#e88995;}.cls-10{opacity:0.5;}.cls-11{fill:#00a99d;opacity:0.22;}</style></defs><title>Zeichenfläche 1</title><g id="ReaderIcon"><g id="BookRight_Kopie_Kopie" data-name="BookRight Kopie Kopie"><g id="Backpaper_bright" data-name="Backpaper bright"><path class="cls-1" d="M18,30l14.11-1A.92.92,0,0,0,33,28V7a.92.92,0,0,0-.89-1h-2V25.93L18,26.93l-12.14-1V6h-2A.92.92,0,0,0,3,7V28a.92.92,0,0,0,.89,1L18,30"/></g><g id="Backpages"><polygon class="cls-2" points="30.14 6 31.57 7.53 31.57 27.47 18 28.47 18 26.93 30.14 25.93 30.14 6"/></g><path id="Backpage-Shade" class="cls-3" d="M18,28.47l13.57-1-1.43-1.53-10.61.87A1.66,1.66,0,0,0,18,28.47Z"/><path id="Frontpage" class="cls-4" d="M20.12,7l10-1V25.93L18,26.93V9.28A2.2,2.2,0,0,1,20.12,7Z"/><path id="Frontpage-Shade" class="cls-5" d="M19.43,26.83V7.13A2.26,2.26,0,0,0,18,9.28V28.47A1.66,1.66,0,0,1,19.43,26.83Z"/></g><g id="BookLeft_Kopie_Kopie" data-name="BookLeft Kopie Kopie"><g id="Backpages-2" data-name="Backpages"><polygon class="cls-5" points="5.86 6 4.43 7.53 4.43 27.47 18 28.47 18 26.93 5.86 25.93 5.86 6"/></g><path id="Backpage-Shade-2" data-name="Backpage-Shade" class="cls-3" d="M18,28.47l-13.57-1,1.43-1.53,10.61.87A1.66,1.66,0,0,1,18,28.47Z"/><path id="Frontpage-2" data-name="Frontpage" class="cls-4" d="M15.88,7l-10-1V25.93l12.14,1V9.28A2.2,2.2,0,0,0,15.88,7Z"/><path id="Frontpage-Shade-2" data-name="Frontpage-Shade" class="cls-2" d="M16.57,7.13V26.83A1.66,1.66,0,0,1,18,28.47V9.28A2.26,2.26,0,0,0,16.57,7.13Z"/></g><g id="Booktext_Kopie" data-name="Booktext Kopie"><path class="cls-6" d="M15.66,10,7.34,9.27A.37.37,0,0,1,7,8.9V8.58a.3.3,0,0,1,.34-.31L15.66,9a.37.37,0,0,1,.34.37v.33A.3.3,0,0,1,15.66,10Z"/><path class="cls-6" d="M12.73,11.74l-5.45-.48A.31.31,0,0,1,7,11v-.45a.25.25,0,0,1,.27-.25l5.45.48A.31.31,0,0,1,13,11v.45A.25.25,0,0,1,12.73,11.74Z"/><path class="cls-6" d="M15.66,15l-8.33-.73A.37.37,0,0,1,7,13.9v-.33a.3.3,0,0,1,.34-.31l8.33.73a.37.37,0,0,1,.34.37v.33A.3.3,0,0,1,15.66,15Z"/><path class="cls-3" d="M14.73,16.92l-5.45-.48a.31.31,0,0,1-.27-.3v-.45a.25.25,0,0,1,.27-.25l5.45.48a.31.31,0,0,1,.27.3v.45A.25.25,0,0,1,14.73,16.92Z"/><path class="cls-3" d="M14.73,18.92l-5.45-.48a.31.31,0,0,1-.27-.3v-.45a.25.25,0,0,1,.27-.25l5.45.48a.31.31,0,0,1,.27.3v.45A.25.25,0,0,1,14.73,18.92Z"/><path class="cls-6" d="M12.73,20.74l-5.45-.48A.31.31,0,0,1,7,20v-.45a.25.25,0,0,1,.27-.25l5.45.48A.31.31,0,0,1,13,20v.45A.25.25,0,0,1,12.73,20.74Z"/><path class="cls-3" d="M15.66,23l-8.33-.73A.37.37,0,0,1,7,21.9v-.33a.3.3,0,0,1,.34-.31l8.33.73a.37.37,0,0,1,.34.37v.33A.3.3,0,0,1,15.66,23Z"/><path class="cls-3" d="M15.66,25l-8.33-.73A.37.37,0,0,1,7,23.9v-.33a.3.3,0,0,1,.34-.31l8.33.73a.37.37,0,0,1,.34.37v.33A.3.3,0,0,1,15.66,25Z"/><g class="cls-7"><polygon class="cls-8" points="20.73 21.57 28.27 20.91 28.27 23.43 20.73 24.09 20.73 21.57"/><path class="cls-9" d="M28,21.16v2.05L21,23.84V21.78L28,21.16m.47-.51-8,.7v3l8-.7v-3Z"/></g><polygon class="cls-2" points="21.26 11.7 28.74 10.93 28.74 13.95 21.26 14.72 21.26 11.7"/><path class="cls-3" d="M28.49,11.22v2.5l-7,.72v-2.5l7-.72m.51-.57-8,.82V15l8-.82V10.65Z"/><g class="cls-10"><polygon class="cls-8" points="20.73 18.57 28.27 17.91 28.27 19.43 20.73 20.09 20.73 18.57"/><path class="cls-9" d="M28,18.16v1.05L21,19.84V18.78L28,18.16m.47-.51-8,.7v2l8-.7v-2Z"/></g><path class="cls-11" d="M21.27,9.74l5.45-.48A.31.31,0,0,0,27,9V8.51a.25.25,0,0,0-.27-.25l-5.45.48A.31.31,0,0,0,21,9v.45A.25.25,0,0,0,21.27,9.74Z"/></g></g></svg>