<svg id="MarkingTool_Icon" data-name="MarkingTool Icon" xmlns="http://www.w3.org/2000/svg" viewBox="0 0 36 36"><defs><style>.cls-1{fill:gray;}.cls-2{opacity:0.5;}.cls-3{fill:#6495ed;}.cls-4{opacity:0.4;}.cls-5{fill:#4d4d4d;}.cls-6{opacity:0.3;}</style></defs><title>Zeichenfläche 1</title><g id="Ebene_47_Icon" data-name="Ebene 47 Icon"><g id="Ebene_52" data-name="Ebene 52"><rect class="cls-1" x="5" y="3" width="23" height="4" rx="0.03" ry="0.03"/><rect class="cls-1" x="5" y="10" width="23" height="4" rx="0.04" ry="0.04"/></g><g id="Ebene_46" data-name="Ebene 46" class="cls-2"><rect class="cls-3" x="3" y="8" width="12" height="8" rx="1.42" ry="1.42"/></g><path class="cls-3" d="M17.46,13.93l-3.74,3.74a.76.76,0,0,1-1,.12l-2-2a.64.64,0,0,1-.12-.68L12.53,9.6c.2-.58.92-.85,1.29-.49l3.77,3.77A.76.76,0,0,1,17.46,13.93Z"/><path class="cls-4" d="M16.29,16a1,1,0,0,1-1.44.16l-2.68-2.68a.75.75,0,0,1-.2-.36l-.37,1.07a.88.88,0,0,0,.16.93l2.68,2.68a1,1,0,0,0,1.44-.16"/><path class="cls-5" d="M13.62,11l2.31,2.31-2.79,2.79-1-1L13.62,11M13.4,8.95a1,1,0,0,0-.87.65L10.6,15.16a.64.64,0,0,0,.12.68l2,2a.58.58,0,0,0,.42.16.92.92,0,0,0,.63-.28l3.74-3.74a.76.76,0,0,0,.12-1L13.82,9.11a.57.57,0,0,0-.41-.16Z"/><path class="cls-1" d="M27,20.43l-7,7-2.7,2.7a1.86,1.86,0,0,1-3.17-1.35l.06-3.53a6.58,6.58,0,0,0-.33-2.18L11.35,18a2.46,2.46,0,0,1,.75-2.2l3.29-3.29a2.46,2.46,0,0,1,2.2-.75l5.09,2.53a6.58,6.58,0,0,0,2.18.33l3.53-.06a1.86,1.86,0,0,1,1.35,3.17Z"/><path class="cls-5" d="M14.74,28.33,17,22.91a2.88,2.88,0,0,0-.38-2.18l-2.88-5.09a1.91,1.91,0,0,1,.16-1.28l-1.66,1.45a2.28,2.28,0,0,0-.86,2.2l2.88,5.09a5.84,5.84,0,0,1,.38,2.18l-.07,3.53Z"/><path class="cls-5" d="M17.14,13.22,22,15.64l.1,0,.1,0a8.07,8.07,0,0,0,2.53.41h.15l3.54-.06a.36.36,0,0,1,.25.61L26,19.37l-7,7-2.7,2.7a.33.33,0,0,1-.24.11.41.41,0,0,1-.28-.12.33.33,0,0,1-.09-.25l.06-3.53a8.06,8.06,0,0,0-.41-2.68l0-.1,0-.1L12.8,17.56a1.16,1.16,0,0,1,.36-.7l3.29-3.29a1.15,1.15,0,0,1,.7-.36m0-1.5a2.6,2.6,0,0,0-1.79.8L12.1,15.81a2.46,2.46,0,0,0-.75,2.2l2.53,5.09a6.58,6.58,0,0,1,.33,2.18l-.06,3.53A1.86,1.86,0,0,0,16,30.7a1.82,1.82,0,0,0,1.3-.55l2.7-2.7,7-7,2.7-2.7a1.86,1.86,0,0,0-1.31-3.17h0l-3.53.06h-.12a6.58,6.58,0,0,1-2.06-.33l-5.09-2.53a1.87,1.87,0,0,0-.41,0Z"/><path class="cls-3" d="M42.54,52.68a1.36,1.36,0,0,1-.85-.27L14.52,30.11a1.26,1.26,0,0,1-.47-.95,2.25,2.25,0,0,1,.71-1.67L27,15.22a2.27,2.27,0,0,1,1.57-.71,1.3,1.3,0,0,1,1,.48l22.3,27.16a1.88,1.88,0,0,1-.43,2.42L44.1,52A2.27,2.27,0,0,1,42.54,52.68Z"/><path d="M28.6,14.52a1.28,1.28,0,0,1,1,.47l22.3,27.16a1.87,1.87,0,0,1-.43,2.4l-.84.84-5.73,5.73-.84.84a2.26,2.26,0,0,1-1.56.7,1.34,1.34,0,0,1-.84-.27L14.53,30.1a1.25,1.25,0,0,1-.47-.94,2.23,2.23,0,0,1,.7-1.66L18,24.23l5.73-5.73L27,15.23a2.26,2.26,0,0,1,1.56-.7m0,0a2.29,2.29,0,0,0-1.58.71l-3.27,3.27L18,24.21l-3.27,3.27a1.79,1.79,0,0,0-.23,2.64l27.16,22.3a1.37,1.37,0,0,0,.86.28A2.3,2.3,0,0,0,44.11,52l.84-.84,5.73-5.73.84-.84A1.91,1.91,0,0,0,52,42.14L29.66,15a1.31,1.31,0,0,0-1.06-.48Z"/><g class="cls-6"><path d="M48.68,46.14l-30-20.94c-.39-.25-.44-.81-.2-1.5L15.9,26.32c-1.53,1.53-2.17,3.29-1.38,3.79L43.64,50.46c.69.44,2.25-.25,3.59-1.59l1.51-1.51L50,46.14A1.52,1.52,0,0,1,48.68,46.14Z"/></g><path class="cls-5" d="M28.56,16,50.74,43a.88.88,0,0,1-.27.5l-.84.84-5.73,5.73-.84.84a.87.87,0,0,1-.5.27L15.54,29a.88.88,0,0,1,.27-.48l3.27-3.27,5.73-5.73,3.27-3.27a.89.89,0,0,1,.48-.27m0-1.5a2.29,2.29,0,0,0-1.58.71l-3.27,3.27L18,24.21l-3.27,3.27a1.79,1.79,0,0,0-.23,2.64l27.16,22.3a1.37,1.37,0,0,0,.86.28A2.3,2.3,0,0,0,44.11,52l.84-.84,5.73-5.73.84-.84A1.91,1.91,0,0,0,52,42.14L29.66,15a1.31,1.31,0,0,0-1.06-.48Z"/></g></svg>