<svg id="VocabTool" xmlns="http://www.w3.org/2000/svg" viewBox="0 0 36 36"><defs><style>.cls-1{fill:gray;}.cls-2{fill:#ccc;}.cls-3{fill:#4d4d4d;}.cls-4{opacity:0.26;}.cls-5{fill:#fff;}</style></defs><title>Zeichenfläche 1</title><g id="Ebene_52_Kopie_Kopie" data-name="Ebene 52 Kopie Kopie"><path class="cls-1" d="M30.8,10.17v-1a1.48,1.48,0,0,0-1.49-1.47H21.83a10,10,0,0,1,1.46,3.91h6A1.48,1.48,0,0,0,30.8,10.17Z"/><path class="cls-1" d="M29.12,18a1.68,1.68,0,0,0,1.68-1.67v-1a1.68,1.68,0,0,0-1.68-1.67H23.37A10,10,0,0,1,22.09,18Z"/><path class="cls-2" d="M21.83,7.73H10.67A1.48,1.48,0,0,0,9.19,9.2v1a1.48,1.48,0,0,0,1.49,1.47H23.28a10,10,0,0,0-1.46-3.91Z"/><path class="cls-2" d="M23.37,13.74H10.87a1.68,1.68,0,0,0-1.68,1.67v1A1.68,1.68,0,0,0,10.87,18H22.09a10,10,0,0,0,1.27-4.28Z"/></g><polygon class="cls-3" points="31.01 27.86 27.9 30.95 17.06 20.22 20.18 17.13 31.01 27.86"/><polygon class="cls-1" points="28.92 29.93 27.9 30.95 17.06 20.22 18.09 19.2 28.92 29.93"/><path class="cls-3" d="M32.67,29.51l-1.06-1.05-3.11,3.08,1-1,1.86,1.85,1.28-1.27A1.12,1.12,0,0,0,32.67,29.51Z"/><path class="cls-1" d="M28.49,31.54l1.2,1.19a1,1,0,0,0,1.33,0l.36-.36-1.86-1.85Z"/><path class="cls-3" d="M13.19,5.67A7.42,7.42,0,1,1,5.67,13.1a7.48,7.48,0,0,1,7.52-7.42m0-2.67A10.1,10.1,0,1,0,23.39,13.1,10.15,10.15,0,0,0,13.19,3Z"/><g class="cls-4"><path class="cls-5" d="M13.57,3.7a8.66,8.66,0,1,0,8.74,8.66A8.7,8.7,0,0,0,13.57,3.7Zm4.73,14.45a7.26,7.26,0,0,1-10.2,0A7.1,7.1,0,0,1,8.09,8a7.26,7.26,0,0,1,10.2,0,7.1,7.1,0,0,1,0,10.1Z"/></g><path class="cls-1" d="M15.4,7.94h.19a5.8,5.8,0,0,0-8,5.29,5.69,5.69,0,0,0,.16,1.36A7.68,7.68,0,0,1,15.4,7.94Z"/></svg>