<svg id="info" xmlns="http://www.w3.org/2000/svg" viewBox="0 0 28 28"><defs><style>.cls-1{fill:#6495ed;}</style></defs><title>icon-info</title><path class="cls-1" d="M15,1A14,14,0,1,0,29,15,14,14,0,0,0,15,1Zm3,23.36a4.36,4.36,0,0,1-.75.61,5.38,5.38,0,0,1-1.11.54,4.35,4.35,0,0,1-1.48.23,3.15,3.15,0,0,1-2-.53,1.38,1.38,0,0,1-.52-1.36q.23-1.52.58-4.18t.84-6.34l-1.46-.81.2-1.13,5.08-.66.7.3L16.45,22.61q-.14,1,.44,1a1.06,1.06,0,0,0,.47-.13,5.24,5.24,0,0,0,.7-.46l.36.93Zm.75-17.42a2.29,2.29,0,0,1-.48.81,2.22,2.22,0,0,1-.81.55,3,3,0,0,1-1.16.2,1.82,1.82,0,0,1-.8-.18,2.22,2.22,0,0,1-.66-.48,2.35,2.35,0,0,1-.44-.68,1.77,1.77,0,0,1-.15-.77,2.83,2.83,0,0,1,.19-1,2.43,2.43,0,0,1,.5-.79,2.29,2.29,0,0,1,.78-.53,2.64,2.64,0,0,1,1-.2,2.21,2.21,0,0,1,.91.18,2.28,2.28,0,0,1,.69.46,1.93,1.93,0,0,1,.43.65,1.85,1.85,0,0,1,.13.75A3.29,3.29,0,0,1,18.77,6.93Z" transform="translate(-1 -1)"/></svg>