<svg id="danger" xmlns="http://www.w3.org/2000/svg" viewBox="0 0 28 28"><defs><style>.cls-1{fill:#d9534f;}</style></defs><title>icon-danger</title><path class="cls-1" d="M15,1A14,14,0,1,0,29,15,14,14,0,0,0,15,1Zm2.81,2.84-1.18,16H13.38l-1.32-16Zm-.13,21.64a2.21,2.21,0,0,1-.62.8,2.82,2.82,0,0,1-1,.5,4.21,4.21,0,0,1-1.23.17,2.5,2.5,0,0,1-.92-.18,2.58,2.58,0,0,1-.8-.5,2.41,2.41,0,0,1-.56-.76,2.22,2.22,0,0,1-.21-1,2.38,2.38,0,0,1,.23-1,2.51,2.51,0,0,1,.62-.82,2.76,2.76,0,0,1,.93-.53A3.47,3.47,0,0,1,15.3,22a2.75,2.75,0,0,1,1.08.2,2.52,2.52,0,0,1,.82.54,2.42,2.42,0,0,1,.52.77,2.29,2.29,0,0,1,.18.9A2.58,2.58,0,0,1,17.68,25.48Z" transform="translate(-1 -1)"/></svg>