<svg id="confirm" xmlns="http://www.w3.org/2000/svg" viewBox="0 0 28 28"><defs><style>.cls-1{fill:#f0ad4e;}</style></defs><title>icon-confirm</title><path class="cls-1" d="M15,1A14,14,0,1,0,29,15,14,14,0,0,0,15,1Zm1.76,24.69a2.8,2.8,0,0,1-1,1,2.61,2.61,0,0,1-1.38.38,2.56,2.56,0,0,1-1.31-.34,2.38,2.38,0,0,1-.9-.92,2.65,2.65,0,0,1-.32-1.31,2.57,2.57,0,0,1,.37-1.34,2.82,2.82,0,0,1,1-1,2.66,2.66,0,0,1,1.37-.37,2.56,2.56,0,0,1,1.31.33,2.34,2.34,0,0,1,.88.91,2.76,2.76,0,0,1,0,2.65ZM20.69,11a5.08,5.08,0,0,1-1,1.5,16.16,16.16,0,0,1-1.57,1.35A16.62,16.62,0,0,0,16.78,15,4.29,4.29,0,0,0,16,16.07a3.57,3.57,0,0,0-.38,1.52,3.48,3.48,0,0,0,.05.84,10.77,10.77,0,0,0,.27,1.07L16,20h-3.6a7.19,7.19,0,0,1-.69-1.43,5.57,5.57,0,0,1-.25-1.8A4.11,4.11,0,0,1,11.83,15a4.68,4.68,0,0,1,.83-1.27A17.13,17.13,0,0,1,14,12.56q.72-.62,1.12-1a4,4,0,0,0,.68-1A2.74,2.74,0,0,0,16,9.3a2,2,0,0,0-.81-1.75,4.5,4.5,0,0,0-2.64-.6,7.71,7.71,0,0,0-3,.61V4.16a5.13,5.13,0,0,1,1.72-.55,13.14,13.14,0,0,1,2.46-.23A10.81,10.81,0,0,1,17.86,4a5.22,5.22,0,0,1,2.46,1.89,4.93,4.93,0,0,1,.79,2.88A5.24,5.24,0,0,1,20.69,11Z" transform="translate(-1 -1)"/></svg>